  <svg xmlns="http://www.w3.org/2000/svg" viewBox="0 0 512 512" width="32" height="32" fill="#030303" x="0" y="0" opacity="100%">
    <path d="M200 376l-49.23-16.41c-7.289-2.434-7.289-12.75 0-15.18L200 328l16.41-49.23c2.434-7.289 12.75-7.289 15.18 0L248 328l49.23 16.41c7.289 2.434 7.289 12.75 0 15.18L248 376L240 416H448l-86.38-201.6C355.4 200 354.8 183.8 359.8 168.9L416 0L228.4 107.3C204.8 120.8 185.1 141.4 175 166.4L64 416h144L200 376zM231.2 172.4L256 160l12.42-24.84c1.477-2.949 5.68-2.949 7.156 0L288 160l24.84 12.42c2.949 1.477 2.949 5.68 0 7.156L288 192l-12.42 24.84c-1.477 2.949-5.68 2.949-7.156 0L256 192L231.2 179.6C228.2 178.1 228.2 173.9 231.2 172.4zM496 448h-480C7.164 448 0 455.2 0 464C0 490.5 21.49 512 48 512h416c26.51 0 48-21.49 48-48C512 455.2 504.8 448 496 448z"></path>
  <defs>
    <filter id="filter_dshadow_0_0_0_00000014" color-interpolation-filters="sRGB" filterUnits="userSpaceOnUse">
      <feFlood flood-opacity="0" result="bg-fix"></feFlood>
      <feColorMatrix in="SourceAlpha" type="matrix" values="0 0 0 0 0 0 0 0 0 0 0 0 0 0 0 0 0 0 127 0" result="alpha"></feColorMatrix>
      <feOffset dx="0" dy="0"></feOffset>
      <feGaussianBlur stdDeviation="0"></feGaussianBlur>
      <feComposite in2="alpha" operator="out"></feComposite>
      <feColorMatrix type="matrix" values="0 0 0 0 0 0 0 0 0 0 0 0 0 0 0 0 0 0 0.08 0"></feColorMatrix>
      <feBlend mode="normal" in2="bg-fix" result="bg-fix-filter_dshadow_0_0_0_00000014"></feBlend>
      <feBlend in="SourceGraphic" in2="bg-fix-filter_dshadow_0_0_0_00000014" result="shape"></feBlend>
    </filter>
  </defs>
</svg>