  <svg xmlns="http://www.w3.org/2000/svg" viewBox="0 0 576 512" width="32" height="32" fill="#030303" x="0" y="0" opacity="100%">
    <path d="M48 32C21.5 32 0 53.5 0 80v64C0 152.9 7.125 160 16 160H96V80C96 53.5 74.5 32 48 32zM256 380.6V320h224V128c0-53-43-96-96-96H111.6C121.8 45.38 128 61.88 128 80V384c0 38.88 34.62 69.63 74.75 63.13C234.3 442 256 412.5 256 380.6zM288 352v32c0 52.88-43 96-96 96h272c61.88 0 112-50.13 112-112c0-8.875-7.125-16-16-16H288z"></path>
  <defs>
    <filter id="filter_dshadow_0_0_0_00000014" color-interpolation-filters="sRGB" filterUnits="userSpaceOnUse">
      <feFlood flood-opacity="0" result="bg-fix"></feFlood>
      <feColorMatrix in="SourceAlpha" type="matrix" values="0 0 0 0 0 0 0 0 0 0 0 0 0 0 0 0 0 0 127 0" result="alpha"></feColorMatrix>
      <feOffset dx="0" dy="0"></feOffset>
      <feGaussianBlur stdDeviation="0"></feGaussianBlur>
      <feComposite in2="alpha" operator="out"></feComposite>
      <feColorMatrix type="matrix" values="0 0 0 0 0 0 0 0 0 0 0 0 0 0 0 0 0 0 0.08 0"></feColorMatrix>
      <feBlend mode="normal" in2="bg-fix" result="bg-fix-filter_dshadow_0_0_0_00000014"></feBlend>
      <feBlend in="SourceGraphic" in2="bg-fix-filter_dshadow_0_0_0_00000014" result="shape"></feBlend>
    </filter>
  </defs>
</svg>